<svg width="124" height="11" viewBox="0 0 124 11" fill="none" xmlns="http://www.w3.org/2000/svg">
<path d="M118.811 10.458C120.059 10.414 121.242 9.88701 122.11 8.9882C122.977 8.08938 123.462 6.88888 123.462 5.63961C123.462 4.39033 122.977 3.18983 122.11 2.29101C121.242 1.3922 120.059 0.865248 118.811 0.82118L114.265 0.821179C113.017 0.865252 111.834 1.3922 110.967 2.29102C110.099 3.18983 109.614 4.39034 109.614 5.63961C109.614 6.88888 110.099 8.08939 110.967 8.9882C111.834 9.88702 113.017 10.414 114.265 10.458L118.811 10.458ZM96.3553 5.63961C96.3545 6.91729 95.8466 8.14241 94.9431 9.04587C94.0397 9.94933 92.8145 10.4572 91.5369 10.458L86.9912 10.458C86.3441 10.4809 85.6991 10.3732 85.0945 10.1413C84.49 9.90943 83.9383 9.55817 83.4725 9.10848C83.0067 8.6588 82.6362 8.11989 82.3831 7.52391C82.1301 6.92793 81.9997 6.28709 81.9997 5.63961C81.9997 4.99213 82.1301 4.35129 82.3831 3.75531C82.6362 3.15932 83.0067 2.62042 83.4725 2.17073C83.9383 1.72104 84.49 1.36979 85.0945 1.13793C85.6991 0.906062 86.3441 0.79834 86.9912 0.821182L91.5369 0.821181C92.8145 0.821975 94.0397 1.32989 94.9431 2.23334C95.8466 3.1368 96.3545 4.36192 96.3553 5.63961ZM69.0812 5.63961C69.0804 6.91729 68.5725 8.14241 67.669 9.04587C66.7656 9.94933 65.5404 10.4572 64.2627 10.458L59.7171 10.458C59.07 10.4809 58.4249 10.3732 57.8204 10.1413C57.2159 9.90943 56.6642 9.55818 56.1984 9.10849C55.7325 8.6588 55.3621 8.11989 55.109 7.52391C54.856 6.92793 54.7256 6.28709 54.7256 5.63961C54.7256 4.99213 54.856 4.35129 55.109 3.75531C55.3621 3.15933 55.7325 2.62042 56.1984 2.17073C56.6642 1.72104 57.2159 1.36979 57.8204 1.13793C58.4249 0.906066 59.07 0.798343 59.7171 0.821185H64.2627C65.5404 0.821978 66.7656 1.32989 67.669 2.23335C68.5725 3.1368 69.0804 4.36193 69.0812 5.63961ZM41.8071 5.63961C41.8063 6.91729 41.2984 8.14242 40.3949 9.04588C39.4914 9.94933 38.2663 10.4572 36.9886 10.458L32.4429 10.458C31.1945 10.414 30.0118 9.88702 29.1441 8.98821C28.2765 8.08939 27.7916 6.88888 27.7916 5.63961C27.7916 4.39033 28.2765 3.18984 29.1442 2.29102C30.0118 1.39221 31.1944 0.865255 32.4429 0.821185L36.9886 0.821183C38.2663 0.821978 39.4914 1.32989 40.3949 2.23334C41.2984 3.1368 41.8063 4.36193 41.8071 5.63961ZM9.71451 10.458C10.3616 10.4809 11.0066 10.3732 11.6112 10.1413C12.2157 9.90943 12.7673 9.55818 13.2332 9.10849C13.699 8.6588 14.0695 8.11989 14.3226 7.52391C14.5756 6.92793 14.706 6.28709 14.706 5.63961C14.706 4.99214 14.5756 4.35129 14.3226 3.75531C14.0695 3.15933 13.699 2.62042 13.2332 2.17073C12.7673 1.72105 12.2157 1.3698 11.6112 1.13793C11.0066 0.906069 10.3616 0.798345 9.71451 0.821187L5.16882 0.821188C4.52175 0.798347 3.87671 0.906071 3.27217 1.13793C2.66763 1.3698 2.11599 1.72105 1.65015 2.17074C1.18431 2.62042 0.813815 3.15933 0.560772 3.75531C0.307729 4.35129 0.177314 4.99214 0.177316 5.63961C0.177317 6.28708 0.307729 6.92793 0.560774 7.52391C0.813819 8.11989 1.18431 8.6588 1.65015 9.10849C2.11599 9.55818 2.66763 9.90943 3.27217 10.1413C3.8767 10.3732 4.52175 10.4809 5.16882 10.458L9.71451 10.458Z" fill="#4D4A4A"/>
</svg>
