<svg width="63" height="6" viewBox="0 0 63 6" fill="none" xmlns="http://www.w3.org/2000/svg">
<path d="M60.3154 5.22902C60.9397 5.20698 61.531 4.9435 61.9648 4.4941C62.3986 4.04469 62.6411 3.44444 62.6411 2.8198C62.6411 2.19517 62.3986 1.59492 61.9648 1.14551C61.531 0.696099 60.9397 0.432627 60.3154 0.41059L58.0426 0.41059C57.4183 0.432626 56.827 0.6961 56.3932 1.14551C55.9593 1.59491 55.7169 2.19517 55.7169 2.8198C55.7169 3.44444 55.9593 4.04469 56.3932 4.4941C56.827 4.94351 57.4183 5.20698 58.0426 5.22902L60.3154 5.22902ZM49.0876 2.8198C49.0872 3.45864 48.8332 4.07121 48.3815 4.52294C47.9297 4.97467 47.3172 5.22862 46.6783 5.22902L44.4055 5.22902C44.082 5.24044 43.7594 5.18658 43.4572 5.07065C43.1549 4.95471 42.8791 4.77909 42.6462 4.55424C42.4132 4.3294 42.228 4.05994 42.1015 3.76196C41.975 3.46396 41.9097 3.14354 41.9097 2.81981C41.9097 2.49607 41.975 2.17564 42.1015 1.87765C42.228 1.57966 42.4132 1.31021 42.6462 1.08536C42.8791 0.860522 43.1549 0.684895 43.4572 0.568963C43.7594 0.453032 44.082 0.39917 44.4055 0.410591L46.6783 0.41059C47.3172 0.410988 47.9298 0.664944 48.3815 1.11667C48.8332 1.5684 49.0872 2.18096 49.0876 2.8198ZM35.4505 2.8198C35.4501 3.45865 35.1961 4.07121 34.7444 4.52294C34.2927 4.97467 33.6801 5.22862 33.0413 5.22902L30.7684 5.22902C30.4449 5.24044 30.1224 5.18658 29.8201 5.07064C29.5178 4.95471 29.242 4.77909 29.0091 4.55424C28.7762 4.3294 28.5909 4.05995 28.4644 3.76196C28.3379 3.46396 28.2727 3.14354 28.2727 2.8198C28.2727 2.49607 28.3379 2.17564 28.4644 1.87765C28.5909 1.57966 28.7762 1.31021 29.0091 1.08537C29.242 0.860524 29.5178 0.684896 29.8201 0.568965C30.1224 0.453032 30.4449 0.399173 30.7684 0.410592H33.0413C33.6801 0.41099 34.2927 0.664944 34.7444 1.11667C35.1961 1.5684 35.4501 2.18096 35.4505 2.8198ZM21.8134 2.81981C21.813 3.45865 21.5591 4.07121 21.1074 4.52294C20.6556 4.97467 20.0431 5.22862 19.4042 5.22902L17.1314 5.22902C16.5071 5.20699 15.9158 4.94351 15.482 4.4941C15.0482 4.04469 14.8057 3.44444 14.8057 2.8198C14.8057 2.19517 15.0482 1.59492 15.482 1.14551C15.9158 0.696101 16.5071 0.432627 17.1314 0.410592L19.4042 0.410592C20.0431 0.410989 20.6556 0.664944 21.1074 1.11667C21.5591 1.5684 21.813 2.18096 21.8134 2.81981ZM5.76717 5.22902C6.0907 5.24044 6.41323 5.18658 6.71549 5.07065C7.01776 4.95472 7.29359 4.77909 7.52651 4.55424C7.75943 4.3294 7.94467 4.05995 8.0712 3.76196C8.19772 3.46396 8.26292 3.14354 8.26292 2.81981C8.26292 2.49607 8.19772 2.17565 8.0712 1.87766C7.94467 1.57967 7.75943 1.31021 7.52651 1.08537C7.29359 0.860523 7.01776 0.684899 6.7155 0.568967C6.41323 0.453035 6.0907 0.399173 5.76717 0.410593L3.49432 0.410594C3.17079 0.399173 2.84827 0.453035 2.546 0.568967C2.24373 0.684898 1.96791 0.860524 1.73499 1.08537C1.50207 1.31021 1.31682 1.57966 1.1903 1.87765C1.06378 2.17564 0.998569 2.49607 0.99857 2.81981C0.998571 3.14354 1.06377 3.46397 1.1903 3.76196C1.31682 4.05995 1.50207 4.3294 1.73499 4.55424C1.96791 4.77909 2.24373 4.95472 2.546 5.07065C2.84827 5.18658 3.17079 5.24044 3.49432 5.22902L5.76717 5.22902Z" fill="#E96C5A"/>
</svg>
