<svg width="24" height="55" viewBox="0 0 24 55" fill="none" xmlns="http://www.w3.org/2000/svg">
<path fill-rule="evenodd" clip-rule="evenodd" d="M10.2405 17.1271H13.4258V23.4056H10.2405V17.1271Z" fill="#23100D"/>
<path fill-rule="evenodd" clip-rule="evenodd" d="M18.1075 20.4781C18.4859 11.5099 14.7158 8.87865 12.5693 8.87865C10.3334 12.9323 5.57948 14.0378 4.55784 20.5676C0.0378456 12.1918 10.2543 10.4422 10.7668 7.25405e-07C11.6337 -0.00344328 25.9126 12.2572 18.1075 20.4781Z" fill="#E96C5A"/>
<path fill-rule="evenodd" clip-rule="evenodd" d="M21.654 25.4237C21.654 25.4237 19.8722 27.6416 13.9349 27.6416C7.99427 27.6416 2.34255 25.4237 2.34255 25.4237C1.72551 25.42 1.13223 25.6617 0.693016 26.0956C0.253799 26.5295 0.00454642 27.1203 0 27.738V52.6245C0 53.9022 1.04916 54.9423 2.34255 54.9423H21.654C22.272 54.9459 22.8661 54.7039 23.306 54.2693C23.7458 53.8348 23.9955 53.2432 24 52.6245V27.738C23.9978 27.4319 23.9353 27.1291 23.8162 26.8471C23.6971 26.5651 23.5236 26.3093 23.3058 26.0944C23.0879 25.8795 22.8299 25.7096 22.5465 25.5945C22.2631 25.4795 21.9598 25.4214 21.654 25.4237ZM20.7665 51.6223H16.9517V30.7447H20.7665V51.6223Z" fill="#23100D"/>
</svg>
