<svg width="24" height="55" viewBox="0 0 24 55" fill="none" xmlns="http://www.w3.org/2000/svg">
<path fill-rule="evenodd" clip-rule="evenodd" d="M10.2405 17.1451H13.4258V23.4302H10.2405V17.1451Z" fill="#4D4A4A"/>
<path fill-rule="evenodd" clip-rule="evenodd" d="M21.654 25.4503C21.654 25.4503 19.8722 27.6705 13.9349 27.6705C7.99427 27.6705 2.34255 25.4503 2.34255 25.4503C1.72551 25.4466 1.13223 25.6885 0.693016 26.1229C0.253799 26.5573 0.00454642 27.1486 0 27.7671V52.6796C0 53.9587 1.04916 54.9999 2.34255 54.9999H21.654C22.272 55.0035 22.8661 54.7612 23.306 54.3262C23.7458 53.8912 23.9955 53.2989 24 52.6796V27.7671C23.9977 27.4606 23.9353 27.1575 23.8162 26.8752C23.697 26.5928 23.5236 26.3368 23.3058 26.1217C23.0879 25.9065 22.8299 25.7365 22.5465 25.6213C22.2631 25.5061 21.9598 25.448 21.654 25.4503V25.4503ZM20.7665 51.6763H16.9517V30.7768H20.7665V51.6763V51.6763Z" fill="#4D4A4A"/>
</svg>
